<svg width="534" height="765" viewBox="0 0 534 765" fill="none" xmlns="http://www.w3.org/2000/svg">
<path d="M266.906 0C414.314 0.000371364 533.813 116.074 533.813 259.258C533.813 305.156 521.533 348.268 499.992 385.664L495.271 394.165L495.267 394.174L495.26 394.184L491.75 399.887L491.743 399.898L491.736 399.908L487.788 405.611L487.781 405.622L487.773 405.631L469.683 429.253L469.761 429.267L465.789 434.338L414.441 501.391L414.437 501.396L414.431 501.403L267.301 680.763L266.512 680.153L266.583 680.065L175.244 569.029H175.833L120.021 500.991L120.015 500.985L120.011 500.979L61.3984 424.695C50.1975 411.582 40.3011 397.38 31.9033 382.275L31.7822 382.084L31.7627 382.052L31.7461 382.017L31.6963 381.902C11.4743 345.388 6.31528e-05 303.625 0 259.258C0 116.074 119.498 0.00022794 266.906 0ZM266.304 43.0762C144.842 43.0762 46.377 138.433 46.377 256.062C46.3771 373.69 144.842 469.047 266.304 469.047C387.766 469.047 486.229 373.69 486.229 256.062C486.229 138.433 387.766 43.0764 266.304 43.0762ZM70.875 435.39L71.0283 435.363C70.725 435.045 70.4218 434.727 70.1201 434.407L70.875 435.39Z" fill="url(#paint0_linear_111_76)"/>
<path d="M272.432 79.8789C368.571 81.9445 446.179 159.266 448.702 255.292H462.804V264.065H448.722C446.65 360.498 368.864 438.283 272.432 440.354V456.192H263.658V440.336C167.632 437.813 90.3107 360.205 88.2451 264.065H71.5312V255.292H88.2646C90.7804 159.558 167.924 82.4131 263.658 79.8975V64.042H272.432V79.8789ZM272.432 107.907H263.658V94.8057C176.055 97.093 105.459 167.688 103.172 255.292H118.027V264.065H103.172C105.459 351.669 176.055 422.264 263.658 424.552V412.328H272.432V424.552C360.035 422.264 430.63 351.669 432.918 264.065H416.308V255.292H432.918C430.631 167.689 360.035 97.0933 272.432 94.8057V107.907Z" fill="white"/>
<path d="M297.907 161.422C304.535 161.422 309.907 166.795 309.907 173.422V216.938H353.424C360.051 216.938 365.424 222.311 365.424 228.938V291.297C365.424 297.924 360.051 303.297 353.424 303.297H309.907V346.812C309.907 353.44 304.535 358.812 297.907 358.812H235.549C228.922 358.812 223.549 353.44 223.549 346.812V303.297H180.033C173.406 303.297 168.033 297.924 168.033 291.297V228.938C168.033 222.311 173.406 216.939 180.033 216.938H223.549V173.422C223.549 166.795 228.922 161.422 235.549 161.422H297.907ZM267.168 243.011C257.962 243.011 250.499 250.473 250.499 259.679C250.499 268.885 257.962 276.348 267.168 276.348C276.374 276.347 283.836 268.884 283.836 259.679C283.836 250.473 276.374 243.011 267.168 243.011Z" fill="#DCFC71"/>
<path d="M359.219 644.083C368.442 651.755 373.728 660.676 373.728 670.197C373.727 698.869 325.808 722.112 266.697 722.112C207.586 722.112 159.667 698.869 159.667 670.197C159.667 660.676 164.952 651.754 174.175 644.083C169.905 649.617 167.563 655.631 167.563 661.918C167.563 689.293 211.947 711.485 266.697 711.485C321.448 711.485 365.831 689.293 365.831 661.918C365.831 655.631 363.489 649.617 359.219 644.083Z" fill="#007B8A"/>
<path d="M362.371 618.223C405.59 632.765 433.889 657.005 433.89 684.451C433.89 728.937 359.542 765 267.828 765C176.115 765 101.766 728.937 101.766 684.451C101.766 657.005 130.066 632.765 173.284 618.223C137.122 631.547 113.863 652.337 113.863 675.696C113.863 715.911 182.796 748.512 267.828 748.512C352.861 748.512 421.793 715.911 421.793 675.696C421.793 652.337 398.534 631.547 362.371 618.223Z" fill="#005F6B"/>
<defs>
<linearGradient id="paint0_linear_111_76" x1="266.907" y1="0" x2="266.907" y2="680.763" gradientUnits="userSpaceOnUse">
<stop offset="0.456731" stop-color="#029DB0"/>
<stop offset="1" stop-color="#01424A"/>
</linearGradient>
</defs>
</svg>
